<svg width="38" height="48" viewBox="0 0 38 48" fill="none" xmlns="http://www.w3.org/2000/svg">
<path d="M17.8864 15.1591C17.697 14.5455 17.4356 13.9962 17.1023 13.5114C16.7765 13.0189 16.3826 12.5985 15.9205 12.25C15.4659 11.9015 14.9432 11.6402 14.3523 11.4659C13.7614 11.2841 13.1174 11.1932 12.4205 11.1932C11.1705 11.1932 10.0568 11.5076 9.07955 12.1364C8.10227 12.7652 7.33333 13.6894 6.77273 14.9091C6.2197 16.1212 5.94318 17.5985 5.94318 19.3409C5.94318 21.0985 6.2197 22.5871 6.77273 23.8068C7.32576 25.0265 8.0947 25.9545 9.07955 26.5909C10.0644 27.2197 11.2083 27.5341 12.5114 27.5341C13.6932 27.5341 14.7159 27.3068 15.5795 26.8523C16.4508 26.3977 17.1212 25.7538 17.5909 24.9205C18.0606 24.0795 18.2955 23.0947 18.2955 21.9659L19.25 22.1136H12.9318V18.8182H22.375V21.6136C22.375 23.6061 21.9508 25.3295 21.1023 26.7841C20.2538 28.2386 19.0871 29.3598 17.6023 30.1477C16.1174 30.928 14.4129 31.3182 12.4886 31.3182C10.3447 31.3182 8.46212 30.8371 6.84091 29.875C5.22727 28.9053 3.96591 27.5303 3.05682 25.75C2.1553 23.9621 1.70455 21.8409 1.70455 19.3864C1.70455 17.5076 1.9697 15.8295 2.5 14.3523C3.03788 12.875 3.78788 11.6212 4.75 10.5909C5.71212 9.55303 6.84091 8.76515 8.13636 8.22727C9.43182 7.68182 10.8409 7.40909 12.3636 7.40909C13.6515 7.40909 14.8523 7.59848 15.9659 7.97727C17.0795 8.34848 18.0682 8.87879 18.9318 9.56818C19.803 10.2576 20.5189 11.0758 21.0795 12.0227C21.6402 12.9697 22.0076 14.0152 22.1818 15.1591H17.8864Z" fill="white"/>
<path d="M18.2955 43V19.7273H22.5114V30.4205H22.7955L31.875 19.7273H37.0227L28.0227 30.1705L37.1023 43H32.0341L25.0909 33.0227L22.5114 36.0682V43H18.2955Z" fill="white"/>
</svg>
